<?xml version="1.0" standalone="no"?>
<!DOCTYPE svg PUBLIC "-//W3C//DTD SVG 20010904//EN"
 "http://www.w3.org/TR/2001/REC-SVG-20010904/DTD/svg10.dtd">
<svg version="1.0" xmlns="http://www.w3.org/2000/svg"
 width="434.000000pt" height="110.000000pt" viewBox="0 0 434.000000 110.000000"
 preserveAspectRatio="xMidYMid meet">
<metadata>
Created by potrace 1.13, written by Peter Selinger 2001-2015
</metadata>
<g transform="translate(0.000000,110.000000) scale(0.100000,-0.100000)"
fill="#000000" stroke="none">
<path d="M348 1074 c-106 -25 -242 -107 -278 -167 -16 -25 -20 -50 -20 -115 0
-46 3 -82 8 -80 4 2 36 18 70 36 82 42 216 86 316 103 49 8 80 19 84 27 3 8 0
51 -5 96 -16 117 -43 133 -175 100z"/>
<path d="M438 830 c-117 -24 -228 -63 -313 -108 l-70 -37 -5 -100 c-3 -55 -4
-102 -3 -104 2 -2 17 0 35 5 32 10 33 11 38 79 5 75 20 68 20 -10 0 -50 5 -55
43 -48 26 5 27 7 27 77 0 84 13 115 29 73 6 -16 11 -53 11 -83 0 -58 4 -61 58
-45 22 6 24 12 27 88 2 45 7 88 11 94 13 22 33 -20 46 -97 11 -66 14 -74 34
-74 47 0 49 6 46 90 -9 178 33 172 75 -11 l15 -69 52 6 c28 4 51 7 52 8 3 4
-130 286 -135 285 -3 0 -45 -9 -93 -19z"/>
<path d="M670 681 c10 -28 26 -66 34 -86 l15 -35 88 0 c108 0 336 -17 461 -34
105 -14 99 -21 76 82 -11 48 -24 78 -41 94 -25 23 -25 23 -339 26 l-314 3 20
-50z"/>
<path d="M1751 656 c-51 -18 -106 -69 -132 -123 -33 -70 -34 -206 0 -280 27
-62 82 -115 137 -134 56 -19 161 -17 204 6 41 21 50 32 50 62 0 32 -21 33 -57
2 -44 -38 -109 -47 -169 -24 -79 30 -124 116 -124 239 0 47 7 85 19 111 55
121 207 148 273 47 15 -22 15 -22 39 -3 23 19 23 21 9 48 -23 42 -74 63 -150
62 -36 0 -80 -6 -99 -13z"/>
<path d="M2226 536 c-89 -33 -131 -109 -125 -229 7 -138 82 -203 224 -195 64
3 78 7 112 34 62 51 78 87 78 179 0 98 -26 153 -92 192 -53 31 -141 40 -197
19z m160 -57 c43 -26 69 -89 69 -164 -1 -104 -54 -165 -143 -165 -85 0 -139
55 -149 154 -11 104 18 165 92 191 45 16 86 11 131 -16z"/>
<path d="M3243 540 c-49 -15 -83 -63 -83 -116 0 -62 35 -97 125 -124 84 -25
105 -42 105 -86 0 -27 -6 -36 -32 -50 -40 -21 -110 -14 -150 16 -23 17 -32 19
-44 10 -22 -19 -17 -39 19 -61 45 -28 172 -24 214 7 69 52 66 157 -5 193 -20
10 -62 26 -93 34 -79 23 -105 58 -79 107 23 43 117 43 160 0 29 -29 69 -4 54
34 -13 33 -128 55 -191 36z"/>
<path d="M4036 536 c-89 -33 -131 -109 -125 -229 7 -138 82 -203 224 -195 64
3 78 7 112 34 62 51 78 87 78 179 0 98 -26 153 -92 192 -53 31 -141 40 -197
19z m160 -57 c43 -26 69 -89 69 -164 -1 -104 -54 -165 -143 -165 -85 0 -139
55 -149 154 -11 104 18 165 92 191 45 16 86 11 131 -16z"/>
<path d="M497 529 c-125 -10 -291 -35 -387 -57 -69 -16 -76 -20 -92 -52 -13
-25 -18 -59 -18 -123 l0 -87 27 6 c52 11 53 12 54 61 1 82 16 97 24 26 7 -61
9 -63 36 -63 l29 0 0 74 c0 68 10 99 28 81 3 -3 8 -38 10 -76 4 -57 7 -69 19
-65 8 3 26 6 39 6 23 0 24 2 24 78 0 134 29 137 52 5 13 -77 16 -80 67 -66 22
6 23 9 18 60 -6 58 1 123 13 123 11 0 28 -45 43 -115 8 -33 19 -60 25 -59 7 1
23 2 37 3 24 1 25 3 25 79 0 51 5 85 14 97 14 19 15 19 34 2 17 -16 57 -99 76
-159 4 -14 16 -18 51 -18 25 0 45 3 45 6 0 3 -25 59 -56 125 l-57 119 -41 -1
c-23 -1 -85 -5 -139 -10z"/>
<path d="M735 520 c4 -11 26 -67 49 -123 43 -101 43 -102 80 -105 36 -3 37 -3
29 25 -4 15 -8 57 -8 93 0 50 3 65 15 65 23 0 59 -63 72 -126 l12 -59 37 0 37
0 -9 38 c-12 51 -11 132 1 132 14 0 47 -55 71 -122 17 -45 26 -57 47 -61 15
-3 28 -4 30 -2 1 1 -2 22 -7 46 -16 67 -14 129 3 129 15 0 53 -73 75 -142 7
-21 16 -40 19 -42 4 -2 37 -7 73 -11 l67 -7 -28 117 c-15 65 -33 121 -40 125
-26 16 -387 50 -538 50 -89 0 -93 -1 -87 -20z"/>
<path d="M2637 335 c1 -113 5 -210 8 -215 7 -11 193 -14 219 -4 9 3 16 16 16
29 0 21 -3 22 -42 14 -24 -4 -64 -8 -90 -9 -44 0 -47 2 -53 32 -4 17 -6 104
-4 192 l4 161 -30 3 -30 3 2 -206z"/>
<path d="M2968 338 c1 -112 5 -209 7 -215 2 -7 17 -13 33 -13 l29 0 -9 58 c-5
31 -7 127 -6 212 l3 155 -30 3 -30 3 3 -203z"/>
<path d="M3568 338 c2 -112 5 -209 7 -215 3 -9 35 -13 114 -13 126 0 141 4
141 35 0 21 -2 22 -57 13 -32 -5 -75 -8 -98 -6 l-40 3 -3 82 -3 82 63 3 c56 3
63 6 66 24 3 21 0 22 -61 17 l-64 -6 -7 62 c-4 34 -4 66 0 73 5 7 38 9 106 5
97 -5 99 -5 96 16 -3 21 -8 22 -133 25 l-130 3 3 -203z"/>
<path d="M420 258 c-106 -9 -325 -43 -382 -59 l-38 -10 0 -74 c0 -68 2 -75 26
-94 15 -12 35 -21 45 -21 17 0 19 8 19 67 0 79 13 75 20 -5 5 -56 5 -57 39
-60 33 -3 33 -3 27 31 -8 45 3 119 18 114 6 -2 15 -36 20 -76 l9 -72 36 3 c30
2 35 7 33 23 -6 32 9 145 19 145 14 0 29 -46 37 -110 7 -55 7 -55 45 -58 l37
-3 0 90 c0 136 23 132 56 -11 l18 -78 37 0 37 0 -1 93 c-1 103 13 147 39 126
20 -16 57 -90 78 -156 17 -51 19 -53 53 -53 l36 0 -7 38 c-4 20 -9 62 -12 92
l-5 55 26 -30 c14 -16 44 -60 67 -97 37 -63 43 -68 75 -68 l35 0 -19 32 c-10
18 -46 79 -78 136 l-60 102 -145 -1 c-80 -1 -188 -6 -240 -11z"/>
<path d="M922 135 c69 -116 84 -135 106 -135 23 0 24 2 18 37 -3 21 -9 66 -13
100 -5 54 -3 63 12 69 29 11 51 -31 85 -163 10 -41 13 -43 47 -43 32 0 35 2
29 22 -14 47 -19 178 -8 178 14 0 53 -75 76 -147 15 -44 22 -53 42 -53 l23 0
-6 95 c-4 69 -3 95 6 95 15 0 47 -53 73 -123 22 -62 31 -68 48 -36 11 20 8 43
-21 160 -9 35 -11 36 -67 43 -202 23 -359 36 -439 36 l-92 0 81 -135z"/>
</g>
</svg>
